<svg width="40" height="40" viewBox="0 0 40 40" fill="none" xmlns="http://www.w3.org/2000/svg">
<g id="heroicons-solid/plus-circle">
<path id="Subtract" fill-rule="evenodd" clip-rule="evenodd" d="M20 3.75C11.0254 3.75 3.75 11.0254 3.75 20C3.75 28.9746 11.0254 36.25 20 36.25C28.9746 36.25 36.25 28.9746 36.25 20C36.25 11.0254 28.9746 3.75 20 3.75ZM21.25 15C21.25 14.3096 20.6904 13.75 20 13.75C19.3096 13.75 18.75 14.3096 18.75 15V18.75H15C14.3096 18.75 13.75 19.3096 13.75 20C13.75 20.6904 14.3096 21.25 15 21.25H18.75V25C18.75 25.6904 19.3096 26.25 20 26.25C20.6904 26.25 21.25 25.6904 21.25 25V21.25H25C25.6904 21.25 26.25 20.6904 26.25 20C26.25 19.3096 25.6904 18.75 25 18.75H21.25V15Z" fill="#2196F3"/>
</g>
</svg>
